<?xml version="1.0" encoding="utf-8"?>
<!-- Generator: Adobe Illustrator 25.4.6, SVG Export Plug-In . SVG Version: 6.00 Build 0)  -->
<svg version="1.1" id="_x32_" xmlns="http://www.w3.org/2000/svg" xmlns:xlink="http://www.w3.org/1999/xlink" x="0px" y="0px"
	 viewBox="0 0 512 512" style="enable-background:new 0 0 512 512;" xml:space="preserve">
<style type="text/css">
	.st0{fill:#95C31E;}
</style>
<g>
	<path class="st0" d="M400.4,53.7H258.1h-6.6H111.6L0,207.2l256,251.1l10.5-10.3L512,207.2L400.4,53.7z M375.7,83.9l-20.6,91.6
		l-72.9-91.6H375.7z M255,92.6l79.3,99.6h-157L255,92.6z M227.9,83.9l-71.1,91.2l0,0l-20.5-91.2C136.3,83.9,227.9,83.9,227.9,83.9z
		 M113.2,102.7L113.2,102.7l20.1,89.4H48.2L113.2,102.7z M141.4,218.9l70.4,153.9L55,218.9H141.4z M256,405.1l-85.2-186.2h170.4
		L256,405.1z M300.1,372.7l70.4-153.9H457L300.1,372.7z M378.7,192.2l20.1-89.5l0,0l65,89.4L378.7,192.2L378.7,192.2z"/>
</g>
</svg>
