<?xml version="1.0" encoding="utf-8"?>
<!-- Generator: Adobe Illustrator 25.4.6, SVG Export Plug-In . SVG Version: 6.00 Build 0)  -->
<svg version="1.1" id="_x32_" xmlns="http://www.w3.org/2000/svg" xmlns:xlink="http://www.w3.org/1999/xlink" x="0px" y="0px"
	 viewBox="0 0 512 512" style="enable-background:new 0 0 512 512;" xml:space="preserve">
<style type="text/css">
	.st0{fill:#95C31E;}
</style>
<g>
	<path class="st0" d="M488.4,168.8l-69.9,60.9l-0.3,6.1c-0.2,3.4-1.4,8.4-3.3,13.5c-1.1,2.7-2.3,5.3-3.6,8L332,188.9
		c-3.1-2.7-7.2-3.9-11.2-3.3c-0.7,0.1-58.9,7.4-116.9,31.8c-5.8,2.5-10,3.2-13,3.2c-2.4,0-3.7-0.4-4.8-1c-1.6-0.8-2.7-1.8-3.7-3.9
		c-1.1-2.1-1.8-5-1.8-8.2c0-4.4,1.6-9,3.3-11.2c2.3-2.9,5-6.9,8.8-11.9c5.6-7.6,13.3-17.3,22.4-27c9.1-9.6,19.6-18.8,30.6-25.3
		c14.9-8.8,27.7-10.9,39.7-11c7.4,0,14.6,1,21.6,2c6.9,1,13.6,2.3,20.9,2.3c4.6,0,9.6-0.5,14.7-2.6h0.1c8-3.3,15.8-8.4,23.5-14
		c11.7-8.5,23.3-18.5,32-26.5c1.8-1.5,3.3-3.1,4.7-4.4l-19.7-21c-4.3,4-10,9.1-16,14.2c-6.2,5.3-12.9,10.7-19.2,15.2
		c-6.3,4.5-12.4,8.2-16.6,9.8c-0.2,0.2-1.4,0.4-3.6,0.4c-3.4,0.1-9.4-0.9-16.7-2s-16-2.3-25.8-2.3c-8.5-0.1-17.9,1-27.9,3.7
		c-9.9-2.8-19.3-3.7-27.9-3.7c-9.9,0-18.4,1.2-25.7,2.3c-7.3,1.1-13.2,2.1-16.7,2c-2.2,0-3.3-0.3-3.5-0.4
		c-4.4-1.8-10.9-5.8-17.7-10.6c-10.3-7.4-21.3-16.9-29.6-24.5c-2.3-2.1-4.2-3.9-6.1-5.5l-19.7,21c4.2,3.9,9.8,9.1,16,14.5
		c6.9,5.9,14.7,12.2,22.5,17.9c7.9,5.6,15.7,10.6,23.5,14c5.1,2.1,10,2.6,14.7,2.6c7.3,0,14.1-1.2,21-2.3c0.5-0.1,0.9-0.1,1.4-0.1
		c-9.6,8.2-17.9,17.1-25,25.4c-6,7-10.9,13.6-15,18.9c-3.9,5.3-6.9,9.7-8.3,11.4c-6.6,8.5-9.4,18.7-9.5,28.9
		c0.1,9.6,2.6,19.5,9.2,27.8c3.3,4.1,7.6,7.8,12.8,10.2c5.2,2.5,11.1,3.7,17.3,3.7c7.7,0,15.8-1.9,24.2-5.5
		c26.7-11.2,54.2-18.8,74.9-23.4c10.3-2.3,19-3.9,25.1-4.9c1.2-0.2,2.1-0.4,3.1-0.5l90.6,78v0.1h0.1c0,0.3-0.1,1.1-0.8,2.3
		c-1.1,2.1-3.4,4.7-6.5,6.6s-6.6,3-9.9,3c-1.2,0-2.4,0.2-3.5,0.4c-2.1-0.4-4.1-1-6.1-1.9c-6.3-2.5-12.1-6.3-16.3-9.8
		c-2.1-1.7-3.7-3.2-4.8-4.2l-1.2-1.2l-0.3-0.3V288c-2.2-2.3-5.1-3.4-8-3.4c-2.6,0-5.2,1-7.3,2.9c-4.4,4-4.7,10.9-0.7,15.3
		c0.4,0.4,5.8,6.3,14.7,12.5c4.4,3.1,9.9,6.1,16,8.6c1.4,0.5,2.9,1.1,4.4,1.5c0.4,1,1,1.9,1.6,2.8h-0.3l0.1,0.1
		c0.2,0.4,0.7,2.2,0.6,4.2c0.1,3.9-1.4,9.2-3.4,12c-1,1.5-2,2.4-3.1,3s-2.1,1-4,1h-0.7c-0.4-0.1-0.8,0-1.2,0.1c-0.1,0-0.1,0-0.1,0
		c-9.4,0-18.1-4-24.5-8.5c-3.3-2.2-5.8-4.4-7.6-6c-0.9-0.8-1.5-1.5-1.9-1.9l-0.4-0.4l-0.1-0.1v-0.1c-2.1-2.5-5.1-3.6-8.2-3.6
		c-2.6,0-5,0.9-7.1,2.7c-4.5,3.9-5,10.7-1.1,15.2c0.4,0.5,5.4,6.2,14.1,12.1c5.7,3.9,13.2,7.9,22.1,10.2c-0.1,0.2-0.2,0.5-0.3,0.7
		c-1.2,2.6-2.8,5.2-7.2,7.8c-3,1.8-5.1,2.6-6.6,3.2c-1.5,0.4-2.3,0.5-3.3,0.5c-1.5,0-3.5-0.3-7-1c-0.7-0.1-1.3-0.1-2-0.2
		c-0.2-0.1-0.4-0.1-0.7-0.3c-3.5-1.8-8-4.7-11.1-7.4c-1.6-1.2-3-2.5-3.9-3.3l-1.1-1l-0.2-0.2h-0.1c-4.3-4.1-11.1-3.9-15.3,0.3
		c-4.1,4.3-3.9,11.1,0.4,15.3c0.2,0.2,4.7,4.6,11.1,9.2c1.1,0.9,2.4,1.7,3.6,2.5c-1.8,2.9-3.6,4.7-5.4,6c-2.9,2.1-6,3-10,3
		c-3.6,0-7.9-0.9-12.1-2.7c-1.5-0.6-2.9-1.5-4.1-2.2c0.8-3.1,1.2-6.2,1.2-9.4c0-6.5-1.8-13.1-5.4-19c-6.2-10-16.6-15.9-27.5-16.7
		c0-0.4,0.1-0.8,0.1-1.2c0-7.1-2-14.4-5.9-20.9c-7.4-11.9-20.3-18.7-33.4-18.7h-0.2c-0.6,0-1.1,0.1-1.6,0.1
		c-0.7-5.6-2.5-11.1-5.6-16.3c-6.1-9.9-16-16.1-26.5-18c-0.1-7-2.1-14.1-5.9-20.5c-7.5-12-20.5-18.6-33.7-18.6c-7.1,0-14.4,2-20.9,6
		l-13.8,8.6c-0.4-0.7-0.8-1.5-1.1-2.3c-2.5-5.8-3.9-11.5-4.1-15.5l-0.5-5.7l-70-60.9l-19.7,21l62,54c1.1,6.5,3.1,12.7,5.5,18.4
		c1.5,3.7,3.3,7.3,4.9,10.6c-3.7,6.2-5.8,13.3-5.8,20.5s2,14.4,6,20.9c6.1,9.9,16,16,26.5,17.9c0.1,7,2.1,14.1,5.9,20.5
		c7.5,12,20.5,18.7,33.7,18.7c0.5,0,1-0.1,1.5-0.1c0.7,5.6,2.6,11.1,5.7,16.3c7.5,12,20.5,18.7,33.7,18.7c1.3,0,2.6-0.1,3.9-0.3
		c0.7,5,2.3,10,5.1,14.6c6.9,10.9,18.6,17,30.6,17c6.5,0,13.1-1.8,19-5.4l18-11.1c3.5,2.3,7.2,4.3,11.1,5.9
		c7.2,3.1,15.2,4.9,23.3,4.9c9,0.1,18.4-2.4,26.6-8.2c5.2-3.6,9.8-8.8,13.4-14.7c0.6,0,1.1,0.1,1.7,0.1c3.7,0,7.8-0.5,11.9-1.8
		c4-1.2,8.1-3.1,12.4-5.5c10.3-5.8,16.6-14.4,19.5-21.7c0.7-1.7,1.2-3.2,1.6-4.6c2.5-0.8,4.9-1.8,7.1-3.1
		c7.9-4.5,13.1-11.5,16.4-18.5c3.2-7.1,4.6-14.4,4.6-21.5c0-0.7-0.1-1.4-0.1-2.1c5.2-2.1,10-5.1,13.9-8.6c4.1-3.6,7.6-7.8,10-12.5
		c2.6-4.7,4.2-10.1,4.2-16.1c0-3.9-0.8-7.9-2.6-11.7c-0.5-1.2-1.3-2.3-2.1-3.4c3.1-5.5,6.2-11.6,8.8-18.2c2-5,3.5-10.3,4.4-15.8
		l62-54.1L488.4,168.8z M116.3,302l-0.7,0.4c-1.8,1.1-3.7,1.6-5.7,1.6c-3.6,0-7.1-1.8-9.2-5c-1.2-1.8-1.7-3.7-1.7-5.7
		c0.1-3.6,1.8-7.1,5.1-9.2l23.7-14.8c1.9-1.1,3.7-1.6,5.7-1.6c3.6,0,7.1,1.8,9.2,5l12.2-7.6l-12.2,7.7c1.2,1.8,1.7,3.6,1.7,5.6
		c-0.1,2.6-0.9,4.9-2.6,6.9L121.4,298C119.6,299.3,118,300.6,116.3,302z M148.1,340.9c-1.8,1.2-3.7,1.7-5.7,1.7
		c-3.6,0-7.1-1.8-9.2-5.1c-1.2-1.8-1.7-3.6-1.7-5.6c0.1-2.6,0.9-5,2.6-6.9l20.4-12.7c1.9-1.2,3.5-2.6,5.1-3.9l0.7-0.4
		c1.9-1.2,3.7-1.7,5.7-1.7c3.6,0.1,7.1,1.8,9.2,5.1c1.2,1.8,1.7,3.6,1.7,5.6c-0.1,3.6-1.8,7.1-5.1,9.3L148.1,340.9z M212.7,361
		L189,375.8c-1.8,1.1-3.6,1.6-5.6,1.6c-3.6,0-7.1-1.8-9.2-5c-1.2-1.9-1.7-3.7-1.7-5.7c0-3.6,1.8-7.1,5.1-9.2l23.7-14.8
		c1.8-1.1,3.7-1.6,5.7-1.6c3.6,0,7.1,1.8,9.2,5c1.1,1.8,1.6,3.7,1.6,5.7C217.8,355.4,216,358.9,212.7,361z M247.1,394.9l-20.4,12.7
		c-1.2,0.8-2.5,1.1-3.8,1.1c-2.4,0-4.7-1.2-6.1-3.4c-0.7-1.2-1.1-2.5-1.1-3.8c0-2.5,1.2-4.7,3.3-6v-0.1l20.4-12.7
		c1.3-0.7,2.6-1.1,3.8-1.1c2.5,0.1,4.7,1.2,6.1,3.4c0.8,1.2,1.1,2.5,1.1,3.7C250.6,391.3,249.4,393.6,247.1,394.9z"/>
</g>
</svg>
