<?xml version="1.0" encoding="utf-8"?>
<!-- Generator: Adobe Illustrator 25.4.6, SVG Export Plug-In . SVG Version: 6.00 Build 0)  -->
<svg version="1.1" xmlns="http://www.w3.org/2000/svg" xmlns:xlink="http://www.w3.org/1999/xlink" x="0px" y="0px"
	 viewBox="0 0 512 512" style="enable-background:new 0 0 512 512;" xml:space="preserve">
<style type="text/css">
	.st0{display:none;}
	.st1{display:inline;}
	.st2{fill:#95C31E;}
</style>
<g id="_x32_" class="st0">
	<g class="st1">
		<path class="st2" d="M261.7,240.3c2.1-0.2,3.7-2,3.7-4v-9.6c0-2.1-1.6-3.8-3.7-4l-12.8-1c-0.8-0.1-1.5-0.6-1.8-1.3l-4.2-10.2
			c-0.3-0.7-0.2-1.6,0.4-2.2l8.4-9.7c1.3-1.6,1.2-4-0.2-5.5l-6.9-6.9c-1.5-1.5-3.9-1.6-5.5-0.2l-9.7,8.4c-0.6,0.5-1.5,0.7-2.2,0.4
			l-10.2-4.3c-0.7-0.3-1.2-1-1.3-1.8l-1-12.7c-0.2-2.1-2-3.7-4-3.7H201c-2.1,0-3.8,1.6-4,3.7l-1,12.7c-0.1,0.8-0.5,1.5-1.3,1.8
			l-10.2,4.3c-0.7,0.3-1.6,0.2-2.2-0.4l-9.8-8.4c-1.6-1.3-4-1.2-5.5,0.2l-6.9,6.9c-1.5,1.5-1.6,3.9-0.2,5.5l8.4,9.7
			c0.5,0.6,0.7,1.5,0.4,2.2l-4.2,10.2c-0.3,0.7-1,1.2-1.8,1.3l-12.7,1c-2.1,0.2-3.7,2-3.7,4v9.6c0,2.1,1.6,3.8,3.7,4l12.7,1
			c0.8,0.1,1.5,0.6,1.8,1.3l4.2,10.2c0.4,0.7,0.2,1.6-0.4,2.2l-8.4,9.7c-1.3,1.6-1.2,4,0.2,5.5l6.9,6.9c1.5,1.5,3.9,1.6,5.5,0.2
			l9.8-8.3c0.6-0.5,1.5-0.7,2.2-0.4l10.2,4.2c0.7,0.3,1.2,1,1.3,1.8l1,12.7c0.2,2.1,2,3.7,4,3.7h9.5c2.1,0,3.8-1.6,4-3.7l1-12.7
			c0.1-0.8,0.6-1.5,1.3-1.8l10.2-4.2c0.7-0.3,1.6-0.2,2.2,0.4l9.7,8.3c1.6,1.3,4,1.3,5.5-0.2l6.9-6.9c1.5-1.5,1.6-3.9,0.2-5.5
			l-8.4-9.7c-0.5-0.6-0.6-1.5-0.4-2.2l4.2-10.2c0.3-0.7,1-1.2,1.8-1.3L261.7,240.3z M205.7,251.7c-5.3,0-10.4-2.1-14.3-5.9
			c-3.8-3.8-5.9-8.9-5.9-14.3c0-5.3,2.1-10.5,5.9-14.3c3.8-3.8,8.9-5.9,14.3-5.9c5.3,0,10.5,2.1,14.3,5.9c3.8,3.8,5.9,8.9,5.9,14.3
			c0,5.4-2.1,10.4-5.9,14.3C216.2,249.5,211.2,251.7,205.7,251.7z"/>
		<path class="st2" d="M342.3,177.9c1.7-0.2,3-1.5,3-3.3v-7.8c0-1.7-1.3-3.1-3-3.3l-10.3-0.8c-0.6-0.1-1.2-0.4-1.4-1.1l-3.4-8.2
			c-0.3-0.6-0.2-1.3,0.3-1.8l6.7-7.8c1.1-1.3,1.1-3.2-0.2-4.5l-5.5-5.5c-1.2-1.2-3.1-1.2-4.5-0.2l-7.8,6.7c-0.4,0.4-1.2,0.5-1.8,0.3
			l-8.2-3.4c-0.6-0.3-1-0.8-1.1-1.5l-0.8-10.3c-0.2-1.7-1.6-3-3.3-3h-7.8c-1.7,0-3.1,1.3-3.2,3l-0.8,10.3c0,0.7-0.4,1.2-1.1,1.5
			l-8.2,3.4c-0.6,0.3-1.3,0.2-1.8-0.3l-7.8-6.7c-1.3-1.1-3.2-1.1-4.5,0.2l-5.5,5.5c-1.2,1.2-1.2,3.1-0.2,4.5l6.7,7.8
			c0.4,0.5,0.5,1.2,0.3,1.8l-3.4,8.2c-0.3,0.6-0.8,1.1-1.5,1.1l-10.3,0.8c-1.7,0.2-3,1.5-3,3.3v7.8c0,1.7,1.3,3.1,3,3.3l10.3,0.8
			c0.6,0.1,1.2,0.4,1.5,1.1l3.4,8.2c0.3,0.6,0.2,1.3-0.3,1.8l-6.7,7.8c-1.1,1.3-1.1,3.2,0.2,4.5l5.5,5.5c1.2,1.2,3.1,1.2,4.5,0.2
			l7.8-6.7c0.5-0.4,1.2-0.5,1.8-0.3l8.2,3.4c0.6,0.3,1.1,0.8,1.1,1.5L290,216c0.1,1.7,1.5,3,3.2,3h7.8c1.7,0,3.1-1.3,3.3-3l0.8-10.3
			c0.1-0.7,0.4-1.2,1.1-1.5l8.2-3.4c0.6-0.3,1.3-0.2,1.8,0.3l7.8,6.7c1.3,1.1,3.2,1.1,4.5-0.2l5.5-5.5c1.2-1.2,1.2-3.1,0.2-4.5
			l-6.7-7.8c-0.4-0.5-0.5-1.2-0.3-1.8l3.4-8.2c0.3-0.6,0.8-1.1,1.4-1.1L342.3,177.9z M297.2,187c-4.4,0-8.5-1.7-11.5-4.7
			c-3.1-3.1-4.7-7.1-4.7-11.5s1.7-8.5,4.7-11.5c3-3.1,7.1-4.7,11.5-4.7s8.5,1.7,11.5,4.7s4.7,7.1,4.7,11.5s-1.7,8.5-4.7,11.5
			C305.6,185.3,301.5,187,297.2,187z"/>
		<path class="st2" d="M242.8,144c1.6,0.4,3.4-0.4,3.9-2.1l2.7-7.3c0.6-1.6-0.2-3.4-1.7-4.1l-9.4-4.3c-0.6-0.3-1-0.8-1-1.5l-0.4-8.8
			c0-0.6,0.3-1.2,0.9-1.6l9-5.1c1.5-0.8,2.1-2.7,1.3-4.2l-3.3-7c-0.7-1.6-2.5-2.3-4.1-1.7l-9.7,3.6c-0.6,0.3-1.3,0.1-1.8-0.4l-6.5-6
			c-0.4-0.4-0.7-1.2-0.5-1.8l2.8-10c0.4-1.6-0.4-3.4-2.1-3.9l-7.3-2.7c-1.6-0.6-3.4,0.2-4.1,1.7l-4.3,9.4c-0.3,0.6-0.9,1-1.5,1.1
			l-8.8,0.4c-0.6,0-1.2-0.3-1.6-0.9l-5.1-9c-0.8-1.5-2.7-2.1-4.2-1.3l-7,3.3c-1.5,0.7-2.3,2.5-1.7,4.1l3.6,9.7
			c0.2,0.6,0.1,1.3-0.4,1.8l-6,6.5c-0.4,0.4-1.2,0.7-1.8,0.5l-10-2.8c-1.6-0.4-3.4,0.4-3.9,2.1l-2.7,7.3c-0.6,1.6,0.2,3.4,1.7,4.1
			l9.4,4.3c0.6,0.3,1,0.9,1,1.5l0.4,8.8c0,0.6-0.3,1.2-0.9,1.6l-9,5.1c-1.5,0.8-2.1,2.7-1.3,4.2l3.3,7c0.7,1.6,2.5,2.3,4.1,1.7
			l9.7-3.7c0.6-0.2,1.3-0.1,1.8,0.4l6.5,6c0.4,0.4,0.7,1.2,0.5,1.8l-2.8,10c-0.4,1.6,0.4,3.4,2,3.9l7.3,2.7c1.6,0.5,3.4-0.2,4.1-1.7
			l4.3-9.4c0.3-0.6,0.9-1,1.5-1l8.8-0.4c0.6,0,1.2,0.3,1.6,0.9l5.1,9c0.8,1.5,2.7,2.1,4.2,1.3l7-3.3c1.6-0.7,2.3-2.5,1.7-4.1
			l-3.6-9.7c-0.2-0.6-0.1-1.3,0.4-1.8l6-6.5c0.4-0.4,1.1-0.7,1.8-0.5L242.8,144z M197.3,137.1c-4.1-1.5-7.3-4.5-9.2-8.5
			c-1.9-3.9-2.1-8.4-0.5-12.5c1.5-4.1,4.5-7.3,8.5-9.2c4-1.9,8.4-2,12.5-0.5s7.3,4.5,9.2,8.5s2,8.4,0.5,12.5
			c-1.5,4.1-4.5,7.3-8.5,9.2C205.8,138.4,201.4,138.6,197.3,137.1z"/>
		<path class="st2" d="M458.4,308.6l-40-134.3l-0.3,0.7C413.2,78.6,333.5,1.9,235.8,1.9C135,1.9,53.2,83.7,53.2,184.5v66
			c0,42,14.3,80.7,38.1,111.5v96.4H305v-39c43.8-18,79-52.5,98-95.7l47.8-3.9c2.6-0.2,4.9-1.6,6.4-3.7
			C458.7,313.8,459.1,311.1,458.4,308.6z M235.8,321.4c-75.5,0-136.9-61.4-136.9-136.9S160.3,47.6,235.8,47.6S372.7,109,372.7,184.5
			S311.3,321.4,235.8,321.4z"/>
	</g>
</g>
<g id="レイヤー_2">
	<path class="st2" d="M369.9,127.3c-6.7-48.3-29.8-87.7-68.6-104.6l-3.7,39.2l-0.5,5.1c-1.1,2.7-3.3,4.5-5.9,4.5
		c-3,0-5.6-2.5-6.3-5.8V17.1c-0.1,0-0.2-0.1-0.3-0.1C284,9.9,278,4.3,270.7,4.3h-29.4c-7.3,0-13.3,5.6-13.8,12.7
		c-0.1,0-0.2,0.1-0.3,0.1v48.5c-0.8,3.3-3.3,5.8-6.3,5.8c-2.6,0-4.9-1.8-5.9-4.5l-0.5-5.1l-3.7-39.2c-38.8,16.9-62,56.3-68.6,104.6
		c-10,3.8-17.1,12.7-17.1,22.9c0,0,0,0,0,0.1c0,3.9,3.3,7,7.3,7h247.3c3.9,0,7.3-3.1,7.3-7c0,0,0,0,0-0.1
		C386.9,140,379.9,131.1,369.9,127.3z"/>
	<path class="st2" d="M256,298.6c-57.6,0-104.5-56.7-104.5-126.4h27.8c0,54.4,34.4,98.6,76.7,98.6s76.7-44.2,76.7-98.6h27.8
		C360.5,241.9,313.6,298.6,256,298.6z"/>
	<path class="st2" d="M112.2,314.1c-7.7,4.2-15,8.8-21.6,13.7c-31.9,24.2-49.9,62.3-49.9,101.5c0,0,0,23.3,0,23.3
		c0,2.5,2.1,4.5,4.6,4.5h66.9V314.1z"/>
	<g>
		<path class="st2" d="M366,299.5c-11.8-4-23.9-7.1-35.6-9c-14.6,18.5-42.5,31-74.5,31s-59.8-12.5-74.5-31
			c-11.5,2-23.3,4.9-34.9,8.8v157.9H366V299.5z"/>
		<path class="st2" d="M421.4,327.9c-6.4-4.9-13.5-9.3-21-13.4v142.8h66.2c2.6,0,4.6-2,4.6-4.5c0,0,0-23.3,0-23.3
			C471.3,390.1,453.3,352.1,421.4,327.9z"/>
	</g>
</g>
</svg>
